<svg width="23" height="24" viewBox="0 0 23 24" fill="none" xmlns="http://www.w3.org/2000/svg">
<path id="Vector" d="M22.1792 0.696838V23.1301H15.4496V21.0175C14.6722 21.9482 13.6854 22.6814 12.57 23.1573C11.4546 23.6331 10.2424 23.838 9.03258 23.7551C4.50147 23.7551 0.643738 20.5246 0.643738 14.4662V0.696838H7.37329V13.4847C7.31664 14.0194 7.37722 14.56 7.55082 15.0689C7.72442 15.5778 8.00687 16.0427 8.37848 16.4313C8.75009 16.8199 9.20195 17.1228 9.70257 17.3189C10.2032 17.515 10.7406 17.5997 11.2772 17.5669C13.7441 17.5669 15.4584 16.1321 15.4584 12.9456V0.696838H22.1792Z" fill="white"/>
</svg>
