<svg width="34" height="24" viewBox="0 0 34 24" fill="none" xmlns="http://www.w3.org/2000/svg">
<path id="Vector" d="M33.7519 9.35382V23.1298H27.0224V9.93919C27.0224 7.69674 25.944 6.25973 23.7918 6.25973C21.5472 6.25973 20.2928 7.83099 20.2928 10.4784V23.1298H13.5611V9.93919C13.5611 7.69674 12.4849 6.25973 10.3305 6.25973C8.08807 6.25973 6.83151 7.83099 6.83151 10.4784V23.1298H0.101929V0.696513H6.84249V2.75191C7.53994 1.83668 8.45564 1.11083 9.50589 0.64068C10.5561 0.170528 11.7075 -0.0289334 12.8547 0.0605255C14.0066 0.00419924 15.1535 0.247232 16.1836 0.765947C17.2137 1.28466 18.0919 2.06137 18.7325 3.02039C19.4784 2.01698 20.4666 1.21913 21.6046 0.701492C22.7426 0.183848 23.9934 -0.0366809 25.2398 0.0605255C30.3893 0.069328 33.7519 3.74659 33.7519 9.35382Z" fill="white"/>
</svg>
