<svg width="9" height="34" viewBox="0 0 9 34" fill="none" xmlns="http://www.w3.org/2000/svg">
<path id="Vector" d="M0.335144 4.6849C0.335144 3.88623 0.571971 3.10549 1.01569 2.44142C1.45941 1.77734 2.09009 1.25975 2.82797 0.954114C3.56585 0.648474 4.3778 0.56851 5.16113 0.724324C5.94446 0.880138 6.66398 1.26474 7.22873 1.82949C7.79348 2.39424 8.17809 3.11377 8.3339 3.89709C8.48972 4.68042 8.40974 5.49237 8.1041 6.23024C7.79846 6.96812 7.28088 7.5988 6.6168 8.04252C5.95273 8.48624 5.17199 8.72307 4.37331 8.72307C3.3057 8.71219 2.2849 8.28324 1.52994 7.52829C0.774981 6.77333 0.34603 5.75252 0.335144 4.6849ZM1.00854 10.6971H7.74029V33.1304H1.00854V10.6971Z" fill="white"/>
</svg>
